<svg width="1200" height="1200" xmlns="http://www.w3.org/2000/svg" xmlns:xlink="http://www.w3.org/1999/xlink" version="1.1"><g transform="scale(16.363636363636363) translate(-8.333333333333334, -8.333333333333334)">            <linearGradient id="SvgjsLinearGradient1013"><stop id="SvgjsStop1014" stop-color="#905e26" offset="0"/><stop id="SvgjsStop1015" stop-color="#f5ec9b" offset="0.5"/><stop id="SvgjsStop1016" stop-color="#905e26" offset="1"/></linearGradient><linearGradient id="SvgjsLinearGradient1017"><stop id="SvgjsStop1018" stop-color="#905e26" offset="0"/><stop id="SvgjsStop1019" stop-color="#f5ec9b" offset="0.5"/><stop id="SvgjsStop1020" stop-color="#905e26" offset="1"/></linearGradient><linearGradient id="SvgjsLinearGradient1021"><stop id="SvgjsStop1022" stop-color="#905e26" offset="0"/><stop id="SvgjsStop1023" stop-color="#f5ec9b" offset="0.5"/><stop id="SvgjsStop1024" stop-color="#905e26" offset="1"/></linearGradient>            <g fill="url(#SvgjsLinearGradient1017)"><linearGradient id="SvgjsLinearGradient1013"><stop id="SvgjsStop1014" stop-color="#905e26" offset="0"/><stop id="SvgjsStop1015" stop-color="#f5ec9b" offset="0.5"/><stop id="SvgjsStop1016" stop-color="#905e26" offset="1"/></linearGradient><linearGradient id="SvgjsLinearGradient1017"><stop id="SvgjsStop1018" stop-color="#905e26" offset="0"/><stop id="SvgjsStop1019" stop-color="#f5ec9b" offset="0.5"/><stop id="SvgjsStop1020" stop-color="#905e26" offset="1"/></linearGradient><linearGradient id="SvgjsLinearGradient1021"><stop id="SvgjsStop1022" stop-color="#905e26" offset="0"/><stop id="SvgjsStop1023" stop-color="#f5ec9b" offset="0.5"/><stop id="SvgjsStop1024" stop-color="#905e26" offset="1"/></linearGradient><path xmlns="http://www.w3.org/2000/svg" d="M45,20c-0.552,0-1-0.448-1-1v-6c0-0.552,0.448-1,1-1c0.553,0,1,0.448,1,1v6C46,19.552,45.553,20,45,20z"/><path xmlns="http://www.w3.org/2000/svg" d="M32.001,23.483c-0.346,0-0.682-0.179-0.867-0.5l-3-5.195c-0.276-0.478-0.112-1.09,0.366-1.366  c0.478-0.276,1.09-0.112,1.366,0.366l3,5.195c0.276,0.478,0.112,1.09-0.366,1.366C32.343,23.44,32.17,23.483,32.001,23.483z"/><path xmlns="http://www.w3.org/2000/svg" d="M22.483,33c-0.169,0-0.342-0.043-0.499-0.134l-5.196-3c-0.479-0.276-0.642-0.888-0.366-1.366  c0.276-0.478,0.887-0.643,1.366-0.366l5.196,3c0.479,0.276,0.642,0.888,0.366,1.366C23.165,32.821,22.829,33,22.483,33z"/><path xmlns="http://www.w3.org/2000/svg" d="M19,46h-6c-0.552,0-1-0.447-1-1c0-0.552,0.448-1,1-1h6c0.552,0,1,0.448,1,1C20,45.553,19.552,46,19,46z"/><path xmlns="http://www.w3.org/2000/svg" d="M17.289,62c-0.346,0-0.682-0.179-0.867-0.5c-0.276-0.479-0.112-1.09,0.366-1.366l5.196-3  c0.477-0.276,1.089-0.113,1.366,0.366c0.276,0.479,0.112,1.09-0.366,1.366l-5.196,3C17.631,61.957,17.458,62,17.289,62z"/><path xmlns="http://www.w3.org/2000/svg" d="M29.001,73.713c-0.169,0-0.341-0.043-0.499-0.134c-0.478-0.276-0.642-0.888-0.366-1.366l3-5.197  c0.276-0.478,0.885-0.644,1.366-0.366c0.478,0.276,0.642,0.888,0.366,1.366l-3,5.197C29.683,73.533,29.347,73.713,29.001,73.713z"/><path xmlns="http://www.w3.org/2000/svg" d="M45,78c-0.552,0-1-0.447-1-1v-6c0-0.553,0.448-1,1-1c0.553,0,1,0.447,1,1v6C46,77.553,45.553,78,45,78z"/><path xmlns="http://www.w3.org/2000/svg" d="M61.001,73.713c-0.346,0-0.682-0.179-0.867-0.5l-3-5.195c-0.276-0.479-0.112-1.09,0.366-1.366  c0.477-0.276,1.09-0.113,1.366,0.366l3,5.195c0.276,0.479,0.112,1.09-0.366,1.366C61.343,73.67,61.171,73.713,61.001,73.713z"/><path xmlns="http://www.w3.org/2000/svg" d="M72.712,62c-0.17,0-0.342-0.043-0.499-0.134l-5.195-3c-0.479-0.276-0.643-0.888-0.366-1.366  c0.276-0.479,0.888-0.643,1.366-0.366l5.195,3c0.479,0.276,0.643,0.888,0.366,1.366C73.394,61.821,73.058,62,72.712,62z"/><path xmlns="http://www.w3.org/2000/svg" d="M77,46h-6c-0.553,0-1-0.447-1-1c0-0.552,0.447-1,1-1h6c0.553,0,1,0.448,1,1C78,45.553,77.553,46,77,46z"/><path xmlns="http://www.w3.org/2000/svg" d="M67.519,33c-0.346,0-0.682-0.179-0.867-0.5c-0.276-0.478-0.112-1.09,0.366-1.366l5.195-3  c0.477-0.277,1.089-0.113,1.366,0.366c0.276,0.478,0.112,1.09-0.366,1.366l-5.195,3C67.86,32.957,67.688,33,67.519,33z"/><path xmlns="http://www.w3.org/2000/svg" d="M58.001,23.483c-0.17,0-0.342-0.043-0.499-0.134c-0.479-0.276-0.643-0.888-0.366-1.366l2.999-5.196  c0.276-0.479,0.888-0.643,1.366-0.366c0.479,0.276,0.643,0.888,0.366,1.366l-2.999,5.196C58.683,23.304,58.347,23.483,58.001,23.483  z"/><path xmlns="http://www.w3.org/2000/svg" d="M64.811,64.104L47.838,47.131c0.448-0.596,0.725-1.329,0.725-2.131c0-1.614-1.087-2.966-2.562-3.401V27c0-0.552-0.447-1-1-1  c-0.552,0-1,0.448-1,1v14.599c-1.475,0.436-2.562,1.787-2.562,3.401c0,1.965,1.598,3.562,3.562,3.562  c0.802,0,1.535-0.276,2.131-0.725l16.973,16.973c0.098,0.098,0.226,0.146,0.354,0.146s0.256-0.049,0.354-0.146  C65.006,64.615,65.006,64.299,64.811,64.104z M45,46.562c-0.861,0-1.562-0.701-1.562-1.562s0.701-1.562,1.562-1.562  s1.562,0.701,1.562,1.562S45.861,46.562,45,46.562z"/></g>        </g></svg>